# xmcd CD database file
#
# Track frame offsets:
#	150
#	19287
#	38490
#	56160
#	74080
#	88872
#	104840
#	120620
#	136260
#	152175
#	166345
#	180570
#	198145
#	212732
#	231027
#	247058
#	263457
#	279215
#	293547
#	312760
#
# Disc length: 4374 seconds
#
# Revision: 0
# Processed by: cddbd v1.5.2PL0 Copyright (c) Steve Scherf et al.
# Submitted via: CDex 1.70beta2
#
DISCID=1e111414
DTITLE=ChartBreakers - ChartBreakers CGC-521
DYEAR=1900
DGENRE=Country
TTITLE0=Alabama - There's No Way
TTITLE1=Alabama - "You've Got" The Touch
TTITLE2=Judds - One Hundred And Two
TTITLE3=Ronnie Milsap  - Are You Lovin' Me Like I'm Lovin' You
TTITLE4=Ronnie Milsap - Back On My Mind Again
TTITLE5=Lorrie Morgan - Watch Me
TTITLE6=Michael Martin Murphy and Ryan - Talkin' To The Wrong Man
TTITLE7=Reba McEntire - Little Girl
TTITLE8=Reba McEntire - One Promise Too Late
TTITLE9=Restless Heart - Say What's In Your Heart
TTITLE10=Ricky Van Shelton - I'll Leave This World Loving You
TTITLE11=Ricky Van Shelton - Keep It Between The Lines
TTITLE12=Shenandoah - Rock My Baby
TTITLE13=Shenandoah - Sunday In The South
TTITLE14=George Strait - Baby's Gotten Good At Goodbye
TTITLE15=George Strait - Drinking Champagne
TTITLE16=Randy Travis - He Walked On Water
TTITLE17=Randy Travis - Is It Still Over?
TTITLE18=Travis Tritt and Friends - Lord Have Mercy On The Working Man
TTITLE19=Tanya Tucker - Highway Robbery
EXTD=YEAR: 1900
EXTT0=
EXTT1=
EXTT2=
EXTT3=
EXTT4=
EXTT5=
EXTT6=
EXTT7=
EXTT8=
EXTT9=
EXTT10=
EXTT11=
EXTT12=
EXTT13=
EXTT14=
EXTT15=
EXTT16=
EXTT17=
EXTT18=
EXTT19=
PLAYORDER=
